<?xml version="1.0" encoding="UTF-8"?>
<!-- Generator: Adobe Illustrator 16.0.4, SVG Export Plug-In . SVG Version: 6.00 Build 0)  -->
<!DOCTYPE svg PUBLIC "-//W3C//DTD SVG 1.1//EN" "http://www.w3.org/Graphics/SVG/1.1/DTD/svg11.dtd">
<svg version="1.1" id="Ebene_1" xmlns="http://www.w3.org/2000/svg" xmlns:xlink="http://www.w3.org/1999/xlink" x="0px" y="0px" width="972px" height="972px" viewBox="0 0 972 972" enable-background="new 0 0 972 972" xml:space="preserve">
<circle fill="#E73720" cx="485.998" cy="485.999" r="485.999"/>
<g id="Entwicklung_1_">
</g>
<g id="Werkzeugbau_1_">
	<g id="Ebene_7">
	</g>
</g>
<g id="Produktpalette_1_">
</g>
<g id="Qualitätssicherung_1_">
</g>
<g>
	<g>
		<path fill="#FFFFFF" d="M393.544,415.705l88.784,147.898l193.269-116.02l-88.784-147.898L393.544,415.705z M588.617,292.456    l0.001,0.001l75.437-45.285L626.1,183.947L352.877,347.964l37.954,63.225L588.617,292.456z M485.041,568.122l156.562,260.803    l260.805-156.562L745.845,411.558l-63.021,37.832l0.001,0.002L485.041,568.122z M639.797,836.152l-0.728-1.211l-0.341,0.201    L257.17,199.511l-4.391-7.315l-8.416-1.408l-93.968-15.734l-6.109,36.489l85.553,14.324l321.98,536.384    c-5.115-0.993-10.331-1.502-15.571-1.502c-14.258,0-28.698,3.747-41.813,11.62c-38.542,23.135-51.031,73.136-27.893,111.677    c15.265,25.431,42.216,39.518,69.863,39.518c14.256,0,28.699-3.749,41.814-11.621c17.936-10.767,30.222-27.354,35.908-45.894    l2.306,3.841l10.94,18.224l15.481-12.557l194.441-157.705l-26.957,15.923L639.797,836.152z M563.76,887.857    c-8.299,4.981-17.758,7.615-27.356,7.615c-9.063,0-18.043-2.32-25.967-6.708c-8.132-4.501-14.981-11.133-19.81-19.175    c-7.328-12.208-9.462-26.538-6.013-40.35c3.449-13.812,12.072-25.456,24.277-32.783c8.299-4.982,17.76-7.615,27.356-7.615    c9.064,0,18.045,2.32,25.967,6.709c8.133,4.502,14.982,11.133,19.81,19.174C597.151,839.924,588.957,872.729,563.76,887.857z"/>
	</g>
</g>
</svg>